<svg xmlns="http://www.w3.org/2000/svg" viewBox="0 0 256 256" role="img" aria-label="University of Alberta crest">
  <rect width="256" height="256" fill="#005d32"/>
  <g fill="#ffffff" transform="translate(28 0) scale(3.22)">
    <path d="m41.21,9.31l-.65-.26c-1.45-.58-3.18-.89-5.01-.89-1.68,0-3.26.27-4.63.76-1.37-.49-2.95-.76-4.63-.76-1.83,0-3.57.31-5.01.89l-.65.26v1.44h-1.61v11.16h23.8v-11.16h-1.61v-1.44Zm-11.32,9.97c-1.11-.28-2.33-.43-3.6-.43s-2.49.15-3.6.43v-8.55c2.14-.66,5.07-.66,7.2,0v8.55Zm9.26,0c-1.11-.28-2.33-.43-3.6-.43s-2.49.15-3.6.43v-8.55c2.14-.66,5.07-.66,7.2,0v8.55Z"/>
    <path d="m59.02,6.01l-.85-.41C50.34,1.78,41.68,0,30.92,0S11.5,1.78,3.66,5.59l-.85.41-2.81,1.37v32.26c0,5.4,1.15,18.94,11.76,28.11,8.04,6.94,16.15,9.84,17.05,10.15,0,0,1.96.72,2.1.72s2.1-.72,2.1-.72c.9-.31,9-3.2,17.05-10.15,10.61-9.18,11.76-22.72,11.76-28.12V7.38l-2.81-1.37Zm-36.75,61.28l-1.18,1.18c-.98-.62-1.99-1.31-3.02-2.07l3.1-3.1,1.1,1.1v2.88Zm0-8.03l-1.83,1.83-2.54,2.54-2.54-2.54-1.83-1.83v-2.88l1.1-1.1,3.27,3.27,3.27-3.27,1.1,1.1v2.88Zm0-8.02l-4.37,4.37-4.37-4.37v-2.88l1.1-1.1,3.27,3.27,3.27-3.27,1.1,1.1v2.88Zm13.01,16.05l-1.83,1.83-2.54,2.54-2.54-2.54-1.83-1.83v-2.88l1.1-1.1,3.27,3.27,3.27-3.27,1.1,1.1v2.88Zm0-8.03l-1.83,1.83-2.54,2.54-2.54-2.54-1.83-1.83v-2.88l1.1-1.1,3.27,3.27,3.27-3.27,1.1,1.1v2.88Zm0-8.02l-4.37,4.37-4.37-4.37v-2.88l1.1-1.1,3.27,3.27,3.27-3.27,1.1,1.1v2.88Zm4.27,16.05v-2.88l1.1-1.1,3.1,3.1c-1.03.76-2.04,1.45-3.02,2.07l-1.18-1.18Zm8.74-8.03l-1.83,1.83-2.54,2.54-2.54-2.54-1.83-1.83v-2.88l1.1-1.1,3.27,3.27,3.27-3.27,1.1,1.1v2.88Zm0-8.02l-4.37,4.37-4.37-4.37v-2.88l1.1-1.1,3.27,3.27,3.27-3.27,1.1,1.1v2.88Zm8.24-6.87c-1.45-.17-2.87-.62-4.2-1.36-2.2-1.23-4.73-1.23-6.94,0-3.45,1.92-7.57,1.92-11.02,0-2.2-1.23-4.73-1.23-6.94,0-3.45,1.92-7.57,1.92-11.02,0-2.2-1.23-4.73-1.23-6.94,0-1.33.74-2.75,1.19-4.2,1.36-.2-1.63-.28-3.06-.3-4.18.84-.12,1.67-.41,2.45-.84,3.45-1.92,7.57-1.92,11.02,0,2.2,1.23,4.73,1.23,6.94,0,3.45-1.92,7.57-1.92,11.02,0,2.2,1.23,4.73,1.23,6.94,0,3.45-1.92,7.57-1.92,11.02,0,.79.44,1.61.72,2.45.84-.02,1.12-.09,2.55-.3,4.18Zm.3-8.33l-7.81-7.97-7.36,7.42-10.75-11.05-10.75,11.05-7.36-7.42-7.81,7.97V10.5l.85-.41c7.14-3.47,15.1-5.09,25.08-5.09s17.94,1.62,25.07,5.09l.85.41v25.54Z"/>
  </g>
</svg>
