<?xml version="1.0" encoding="UTF-8"?><svg id="Layer_2" xmlns="http://www.w3.org/2000/svg" viewBox="0 0 288 78.61"><defs><style>.cls-1{fill:#055d32;stroke-width:0px;}</style></defs><g id="Layer_1-2"><path class="cls-1" d="m101.71,9.58v15.8c0,1.79-.38,3.34-1.14,4.65-.76,1.31-1.86,2.31-3.28,2.99-1.43.69-3.11,1.03-5.06,1.03-2.94,0-5.26-.76-6.95-2.29s-2.55-3.61-2.59-6.27v-15.92s5.85,0,5.85,0v16.03c.07,2.64,1.29,3.96,3.68,3.96,1.2,0,2.12-.33,2.74-.99.62-.66.93-1.74.93-3.23v-15.77s5.82,0,5.82,0Z"/><path class="cls-1" d="m127.81,33.72h-5.79s-8.56-15.02-8.56-15.02v15.02s-5.82,0-5.82,0V9.58s5.82,0,5.82,0l8.54,15.02v-15.02s5.8,0,5.8,0v24.14Z"/><path class="cls-1" d="m139.78,33.72h-5.8s0-24.14,0-24.14h5.8s0,24.14,0,24.14Z"/><path class="cls-1" d="m154.52,27.15l4.81-17.57h6.5s-8.12,24.14-8.12,24.14h-6.37s-8.06-24.14-8.06-24.14h6.45s4.79,17.57,4.79,17.57Z"/><path class="cls-1" d="m184.3,23.47h-9.15v5.77h10.81s0,4.48,0,4.48h-16.63s0-24.14,0-24.14h16.66s0,4.49,0,4.49h-10.84v5.09h9.15s0,4.31,0,4.31Z"/><path class="cls-1" d="m200.13,25.18h-3.15v8.54s-5.82,0-5.82,0V9.58s9.5,0,9.5,0c2.86,0,5.1.64,6.72,1.91,1.61,1.27,2.42,3.06,2.42,5.38,0,1.68-.34,3.07-1.02,4.17-.68,1.1-1.74,2-3.19,2.68l5.04,9.75v.25s-6.23,0-6.23,0l-4.26-8.54Zm-3.15-4.48h3.68c1.11,0,1.94-.29,2.5-.87.56-.58.84-1.39.84-2.44,0-1.04-.28-1.86-.85-2.45-.56-.59-1.39-.89-2.49-.89h-3.68v6.65Z"/><path class="cls-1" d="m226.88,27.3c0-.85-.3-1.51-.9-1.99-.6-.47-1.66-.97-3.18-1.48s-2.75-1-3.71-1.48c-3.13-1.54-4.69-3.65-4.69-6.33,0-1.34.39-2.52,1.17-3.54.78-1.02,1.88-1.82,3.31-2.39,1.43-.57,3.03-.85,4.81-.85,1.73,0,3.29.31,4.67.93,1.38.62,2.45,1.5,3.21,2.64.76,1.14,1.14,2.45,1.14,3.92h-5.8c0-.98-.3-1.75-.9-2.29-.6-.54-1.42-.81-2.45-.81s-1.86.23-2.46.69c-.6.46-.9,1.04-.9,1.75,0,.62.33,1.18,1,1.68s1.83,1.02,3.5,1.56c1.67.54,3.04,1.11,4.11,1.73,2.61,1.5,3.91,3.58,3.91,6.22,0,2.11-.8,3.77-2.39,4.97-1.59,1.2-3.78,1.81-6.55,1.81-1.96,0-3.73-.35-5.31-1.05s-2.78-1.66-3.58-2.88c-.8-1.22-1.2-2.63-1.2-4.22h5.84c0,1.29.33,2.25,1,2.86.67.61,1.75.92,3.26.92.96,0,1.72-.21,2.28-.62.56-.41.84-1,.84-1.75Z"/><path class="cls-1" d="m243.21,33.72h-5.8s0-24.14,0-24.14h5.8s0,24.14,0,24.14Z"/><polygon class="cls-1" points="281.71 9.58 276.37 20.06 271.01 9.58 246.71 9.58 246.71 14.07 253.82 14.07 253.82 33.72 259.64 33.72 259.64 14.07 267.27 14.07 273.42 25.05 273.42 33.72 279.32 33.72 279.32 25.05 287.99 9.58 281.71 9.58"/><path class="cls-1" d="m102.95,55.84c0,2.35-.44,4.44-1.31,6.25s-2.11,3.21-3.72,4.19c-1.61.98-3.44,1.47-5.5,1.47-2.06,0-3.88-.47-5.47-1.42-1.59-.95-2.83-2.3-3.72-4.05s-1.36-3.77-1.4-6.05v-1.36c0-2.37.43-4.45,1.3-6.26.87-1.81,2.11-3.2,3.73-4.19,1.62-.98,3.46-1.48,5.53-1.48s3.87.49,5.47,1.46c1.6.97,2.85,2.36,3.74,4.15.89,1.8,1.34,3.85,1.35,6.18v1.11Zm-5.92-1.01c0-2.4-.4-4.22-1.2-5.46-.8-1.24-1.95-1.87-3.44-1.87-2.92,0-4.46,2.19-4.63,6.57l-.02,1.77c0,2.37.39,4.18,1.18,5.45.78,1.27,1.95,1.91,3.5,1.91,1.47,0,2.6-.62,3.4-1.87.8-1.25,1.2-3.04,1.21-5.39v-1.11Z"/><path class="cls-1" d="m123.21,57.8h-9.38s0,9.62,0,9.62h-5.82s0-24.14,0-24.14h16.15s0,4.49,0,4.49h-10.33v5.55h9.38s0,4.48,0,4.48Z"/><path class="cls-1" d="m218.8,57.17h-9.15v5.77h10.81s0,4.48,0,4.48h-16.63s0-24.14,0-24.14h16.66s0,4.49,0,4.49h-10.84v5.09h9.15s0,4.31,0,4.31Z"/><path class="cls-1" d="m234.68,58.88h-3.15v8.54s-5.82,0-5.82,0v-24.14s9.5,0,9.5,0c2.86,0,5.1.64,6.72,1.91,1.61,1.27,2.42,3.06,2.42,5.38,0,1.68-.34,3.07-1.02,4.17-.68,1.1-1.74,2-3.19,2.68l5.04,9.75v.25s-6.23,0-6.23,0l-4.26-8.54Zm-3.15-4.48h3.68c1.11,0,1.94-.29,2.5-.87.56-.58.84-1.39.84-2.44,0-1.04-.28-1.86-.85-2.45-.56-.59-1.39-.89-2.49-.89h-3.68v6.65Z"/><path class="cls-1" d="m150.65,62.91h-7.97s-1.39,4.51-1.39,4.51h-6.67s9.3-24.14,9.3-24.14h5.47s8.92,24.14,8.92,24.14h-6.25s-1.41-4.51-1.41-4.51Zm-6.58-4.49h5.19s-2.6-8.37-2.6-8.37l-2.59,8.37Z"/><path class="cls-1" d="m167.21,62.94h10.13s0,4.48,0,4.48h-15.95s0-24.14,0-24.14h5.82s0,19.66,0,19.66Z"/><path class="cls-1" d="m181.09,67.42v-24.14s8.67,0,8.67,0c3.11,0,5.47.57,7.09,1.71s2.43,2.79,2.43,4.96c0,1.25-.29,2.32-.86,3.2-.58.88-1.42,1.54-2.54,1.96,1.26.33,2.23.95,2.9,1.86s1.01,2.01,1.01,3.32c0,2.37-.75,4.14-2.25,5.33-1.5,1.19-3.72,1.79-6.66,1.82h-9.8Zm5.82-14.08h3.03c1.27-.01,2.18-.24,2.72-.7.54-.45.81-1.13.81-2.01,0-1.02-.29-1.75-.88-2.2-.59-.45-1.53-.67-2.83-.67h-2.85v5.59Zm0,3.81v5.79h3.81c1.05,0,1.86-.24,2.42-.72s.85-1.16.85-2.03c0-2.01-1-3.02-3-3.03h-4.08Z"/><path class="cls-1" d="m266.89,47.77h-7.25s0,19.65,0,19.65h-5.82s0-19.65,0-19.65h-7.11s0-4.49,0-4.49h20.18s0,4.49,0,4.49Z"/><path class="cls-1" d="m280.34,62.91h-7.97s-1.39,4.51-1.39,4.51h-6.22s8.85-24.14,8.85-24.14h5.47s8.92,24.14,8.92,24.14h-6.25s-1.41-4.51-1.41-4.51Zm-6.58-4.49h5.19s-2.6-8.37-2.6-8.37l-2.59,8.37Z"/><path class="cls-1" d="m41.21,9.31l-.65-.26c-1.45-.58-3.18-.89-5.01-.89-1.68,0-3.26.27-4.63.76-1.37-.49-2.95-.76-4.63-.76-1.83,0-3.57.31-5.01.89l-.65.26v1.44h-1.61v11.16h23.8v-11.16h-1.61v-1.44Zm-11.32,9.97c-1.11-.28-2.33-.43-3.6-.43s-2.49.15-3.6.43v-8.55c2.14-.66,5.07-.66,7.2,0v8.55Zm9.26,0c-1.11-.28-2.33-.43-3.6-.43s-2.49.15-3.6.43v-8.55c2.14-.66,5.07-.66,7.2,0v8.55Z"/><path class="cls-1" d="m59.02,6.01l-.85-.41C50.34,1.78,41.68,0,30.92,0S11.5,1.78,3.66,5.59l-.85.41-2.81,1.37v32.26c0,5.4,1.15,18.94,11.76,28.11,8.04,6.94,16.15,9.84,17.05,10.15,0,0,1.96.72,2.1.72s2.1-.72,2.1-.72c.9-.31,9-3.2,17.05-10.15,10.61-9.18,11.76-22.72,11.76-28.12V7.38l-2.81-1.37Zm-36.75,61.28l-1.18,1.18c-.98-.62-1.99-1.31-3.02-2.07l3.1-3.1,1.1,1.1v2.88Zm0-8.03l-1.83,1.83-2.54,2.54-2.54-2.54-1.83-1.83v-2.88l1.1-1.1,3.27,3.27,3.27-3.27,1.1,1.1v2.88Zm0-8.02l-4.37,4.37-4.37-4.37v-2.88l1.1-1.1,3.27,3.27,3.27-3.27,1.1,1.1v2.88Zm13.01,16.05l-1.83,1.83-2.54,2.54-2.54-2.54-1.83-1.83v-2.88l1.1-1.1,3.27,3.27,3.27-3.27,1.1,1.1v2.88Zm0-8.03l-1.83,1.83-2.54,2.54-2.54-2.54-1.83-1.83v-2.88l1.1-1.1,3.27,3.27,3.27-3.27,1.1,1.1v2.88Zm0-8.02l-4.37,4.37-4.37-4.37v-2.88l1.1-1.1,3.27,3.27,3.27-3.27,1.1,1.1v2.88Zm4.27,16.05v-2.88l1.1-1.1,3.1,3.1c-1.03.76-2.04,1.45-3.02,2.07l-1.18-1.18Zm8.74-8.03l-1.83,1.83-2.54,2.54-2.54-2.54-1.83-1.83v-2.88l1.1-1.1,3.27,3.27,3.27-3.27,1.1,1.1v2.88Zm0-8.02l-4.37,4.37-4.37-4.37v-2.88l1.1-1.1,3.27,3.27,3.27-3.27,1.1,1.1v2.88Zm8.24-6.87c-1.45-.17-2.87-.62-4.2-1.36-2.2-1.23-4.73-1.23-6.94,0-3.45,1.92-7.57,1.92-11.02,0-2.2-1.23-4.73-1.23-6.94,0-3.45,1.92-7.57,1.92-11.02,0-2.2-1.23-4.73-1.23-6.94,0-1.33.74-2.75,1.19-4.2,1.36-.2-1.63-.28-3.06-.3-4.18.84-.12,1.67-.41,2.45-.84,3.45-1.92,7.57-1.92,11.02,0,2.2,1.23,4.73,1.23,6.94,0,3.45-1.92,7.57-1.92,11.02,0,2.2,1.23,4.73,1.23,6.94,0,3.45-1.92,7.57-1.92,11.02,0,.79.44,1.61.72,2.45.84-.02,1.12-.09,2.55-.3,4.18Zm.3-8.33l-7.81-7.97-7.36,7.42-10.75-11.05-10.75,11.05-7.36-7.42-7.81,7.97V10.5l.85-.41c7.14-3.47,15.1-5.09,25.08-5.09s17.94,1.62,25.07,5.09l.85.41v25.54Z"/></g></svg>