<svg xmlns="http://www.w3.org/2000/svg" width="1200" height="800" viewBox="0 0 1200 800" fill="none">
  <defs>
    <linearGradient id="bg" x1="98" y1="72" x2="1058" y2="730" gradientUnits="userSpaceOnUse">
      <stop stop-color="#082F49"/>
      <stop offset="1" stop-color="#0F766E"/>
    </linearGradient>
    <linearGradient id="panel" x1="168" y1="136" x2="980" y2="660" gradientUnits="userSpaceOnUse">
      <stop stop-color="#0F172A" stop-opacity="0.92"/>
      <stop offset="1" stop-color="#134E4A" stop-opacity="0.82"/>
    </linearGradient>
  </defs>
  <rect width="1200" height="800" rx="36" fill="url(#bg)"/>
  <circle cx="1024" cy="170" r="140" fill="#67E8F9" fill-opacity="0.12"/>
  <circle cx="930" cy="640" r="120" fill="#34D399" fill-opacity="0.12"/>
  <rect x="146" y="130" width="912" height="540" rx="30" fill="url(#panel)" stroke="#A7F3D0" stroke-opacity="0.24" stroke-width="2"/>
  <rect x="196" y="182" width="188" height="40" rx="20" fill="#CCFBF1" fill-opacity="0.12"/>
  <text x="226" y="208" fill="#CCFBF1" font-size="24" font-family="Arial, sans-serif" letter-spacing="3">SYSTEMS BUILD</text>
  <text x="194" y="322" fill="#F8FAFC" font-size="72" font-family="Georgia, serif" font-weight="700">Go Database</text>
  <text x="194" y="402" fill="#F8FAFC" font-size="72" font-family="Georgia, serif" font-weight="700">Engine</text>
  <text x="194" y="488" fill="#D1FAE5" font-size="32" font-family="Arial, sans-serif">ACID transactions, MVCC concurrency,</text>
  <text x="194" y="532" fill="#D1FAE5" font-size="32" font-family="Arial, sans-serif">B+ tree storage, and query optimization.</text>
  <rect x="196" y="578" width="152" height="56" rx="28" fill="#0EA5E9"/>
  <text x="244" y="614" fill="#FFFFFF" font-size="30" font-family="Arial, sans-serif">MVCC</text>
  <g opacity="0.92">
    <ellipse cx="842" cy="262" rx="112" ry="38" fill="#E0F2FE"/>
    <ellipse cx="842" cy="350" rx="112" ry="38" fill="#BFDBFE"/>
    <ellipse cx="842" cy="438" rx="112" ry="38" fill="#93C5FD"/>
    <path d="M730 262V438" stroke="#E0F2FE" stroke-width="6"/>
    <path d="M954 262V438" stroke="#E0F2FE" stroke-width="6"/>
    <path d="M842 300V400" stroke="#0F172A" stroke-width="8" stroke-dasharray="14 18"/>
  </g>
</svg>
