<svg xmlns="http://www.w3.org/2000/svg" width="1200" height="800" viewBox="0 0 1200 800" fill="none">
  <defs>
    <linearGradient id="bg" x1="82" y1="66" x2="1092" y2="720" gradientUnits="userSpaceOnUse">
      <stop stop-color="#164E63"/>
      <stop offset="1" stop-color="#9A3412"/>
    </linearGradient>
    <linearGradient id="panel" x1="150" y1="132" x2="996" y2="664" gradientUnits="userSpaceOnUse">
      <stop stop-color="#0F172A" stop-opacity="0.9"/>
      <stop offset="1" stop-color="#1F2937" stop-opacity="0.8"/>
    </linearGradient>
  </defs>
  <rect width="1200" height="800" rx="36" fill="url(#bg)"/>
  <circle cx="1032" cy="152" r="128" fill="#67E8F9" fill-opacity="0.12"/>
  <circle cx="1020" cy="618" r="116" fill="#FDBA74" fill-opacity="0.12"/>
  <rect x="148" y="132" width="904" height="536" rx="30" fill="url(#panel)" stroke="#A5F3FC" stroke-opacity="0.22" stroke-width="2"/>
  <rect x="196" y="184" width="206" height="40" rx="20" fill="#CFFAFE" fill-opacity="0.12"/>
  <text x="226" y="210" fill="#CFFAFE" font-size="24" font-family="Arial, sans-serif" letter-spacing="3">NETWORKING PROJECT</text>
  <text x="194" y="320" fill="#F8FAFC" font-size="74" font-family="Georgia, serif" font-weight="700">TCP Vegas+</text>
  <text x="194" y="404" fill="#F8FAFC" font-size="62" font-family="Georgia, serif" font-weight="700">Fairness Study</text>
  <text x="194" y="492" fill="#E0F2FE" font-size="32" font-family="Arial, sans-serif">Congestion control tuning, NS3 evaluation,</text>
  <text x="194" y="536" fill="#E0F2FE" font-size="32" font-family="Arial, sans-serif">and throughput fairness under mixed traffic.</text>
  <rect x="196" y="580" width="184" height="56" rx="28" fill="#0EA5E9"/>
  <text x="237" y="616" fill="#FFFFFF" font-size="29" font-family="Arial, sans-serif">NS3 + TCP/IP</text>
  <circle cx="810" cy="258" r="22" fill="#F8FAFC"/>
  <circle cx="930" cy="314" r="22" fill="#CFFAFE"/>
  <circle cx="770" cy="394" r="22" fill="#FDBA74"/>
  <circle cx="936" cy="454" r="22" fill="#FB923C"/>
  <path d="M810 258L930 314L770 394L936 454" stroke="#F8FAFC" stroke-opacity="0.72" stroke-width="10" stroke-linecap="round" stroke-linejoin="round"/>
  <path d="M760 214C858 178 936 184 1020 232" stroke="#67E8F9" stroke-opacity="0.56" stroke-width="8" stroke-linecap="round"/>
  <path d="M760 506C854 558 930 570 1020 544" stroke="#FDBA74" stroke-opacity="0.56" stroke-width="8" stroke-linecap="round"/>
</svg>
