<svg xmlns="http://www.w3.org/2000/svg" width="1260" height="760" viewBox="0 0 1260 760" role="img" aria-labelledby="title desc">
  <title id="title">1BRC C# solver architecture</title>
  <desc id="desc">Architecture diagram for a .NET 10 NativeAOT One Billion Row Challenge solver with mmap and macOS pread input paths feeding a shared parser, native station tables, merge, sort, and output formatting.</desc>
  <defs>
    <style>
      .bg { fill: #f8fafc; }
      .panel { fill: #ffffff; stroke: #cbd5e1; stroke-width: 1.4; }
      .panel-green { fill: #ecfdf5; stroke: #86efac; stroke-width: 1.4; }
      .panel-blue { fill: #eff6ff; stroke: #93c5fd; stroke-width: 1.4; }
      .panel-amber { fill: #fffbeb; stroke: #fcd34d; stroke-width: 1.4; }
      .panel-red { fill: #fef2f2; stroke: #fca5a5; stroke-width: 1.4; }
      .title { font: 750 31px ui-sans-serif, -apple-system, BlinkMacSystemFont, "Segoe UI", sans-serif; fill: #0f172a; }
      .subtitle { font: 500 15px ui-sans-serif, -apple-system, BlinkMacSystemFont, "Segoe UI", sans-serif; fill: #475569; }
      .eyebrow { font: 760 11px ui-sans-serif, -apple-system, BlinkMacSystemFont, "Segoe UI", sans-serif; fill: #64748b; letter-spacing: .08em; }
      .label { font: 760 16px ui-sans-serif, -apple-system, BlinkMacSystemFont, "Segoe UI", sans-serif; fill: #0f172a; }
      .small { font: 500 13px ui-sans-serif, -apple-system, BlinkMacSystemFont, "Segoe UI", sans-serif; fill: #475569; }
      .mono { font: 650 12px ui-monospace, SFMono-Regular, Menlo, Consolas, monospace; fill: #334155; }
      .line { fill: none; stroke: #64748b; stroke-width: 2.2; marker-end: url(#arrow); }
      .line-green { fill: none; stroke: #047857; stroke-width: 2.2; marker-end: url(#arrow-green); }
      .line-blue { fill: none; stroke: #1d4ed8; stroke-width: 2.2; marker-end: url(#arrow-blue); }
      .dash { stroke-dasharray: 7 7; }
      .chip { fill: #0f172a; }
      .chipText { font: 760 11px ui-sans-serif, -apple-system, BlinkMacSystemFont, "Segoe UI", sans-serif; fill: #ffffff; letter-spacing: .06em; }
    </style>
    <marker id="arrow" markerWidth="10" markerHeight="10" refX="8" refY="3" orient="auto" markerUnits="strokeWidth">
      <path d="M0,0 L0,6 L9,3 z" fill="#64748b" />
    </marker>
    <marker id="arrow-green" markerWidth="10" markerHeight="10" refX="8" refY="3" orient="auto" markerUnits="strokeWidth">
      <path d="M0,0 L0,6 L9,3 z" fill="#047857" />
    </marker>
    <marker id="arrow-blue" markerWidth="10" markerHeight="10" refX="8" refY="3" orient="auto" markerUnits="strokeWidth">
      <path d="M0,0 L0,6 L9,3 z" fill="#1d4ed8" />
    </marker>
  </defs>

  <rect class="bg" width="1260" height="760" rx="26" />
  <text x="58" y="64" class="title">1BRC C# on Apple Silicon</text>
  <text x="58" y="94" class="subtitle">Two input strategies feed the same parser and aggregation core; full-size macOS evidence selects pread for large files.</text>

  <rect x="58" y="138" width="190" height="126" rx="14" class="panel" />
  <text x="80" y="168" class="eyebrow">ENTRY</text>
  <text x="80" y="196" class="label">Program</text>
  <text x="80" y="222" class="small">argument path, stdout,</text>
  <text x="80" y="243" class="small">environment controls</text>

  <rect x="302" y="138" width="210" height="126" rx="14" class="panel-blue" />
  <text x="324" y="168" class="eyebrow">POLICY</text>
  <text x="324" y="196" class="label">RuntimeOptions</text>
  <text x="324" y="222" class="small">worker count, file size,</text>
  <text x="324" y="243" class="mono">BRC_IO / BRC_THREADS</text>

  <rect x="572" y="104" width="236" height="126" rx="14" class="panel-green" />
  <text x="594" y="134" class="eyebrow">SMALLER FILES</text>
  <text x="594" y="162" class="label">mmap path</text>
  <text x="594" y="188" class="small">line-aligned mapped ranges</text>
  <text x="594" y="209" class="small">station keys point into file</text>

  <rect x="572" y="274" width="236" height="142" rx="14" class="panel-amber" />
  <text x="594" y="304" class="eyebrow">MACOS 8 GIB+</text>
  <text x="594" y="332" class="label">pread path</text>
  <text x="594" y="358" class="small">line-aligned native chunks</text>
  <text x="594" y="379" class="small">16 MiB reusable buffers</text>
  <text x="594" y="400" class="small">new names copied into arenas</text>

  <rect x="882" y="190" width="236" height="142" rx="14" class="panel" />
  <text x="904" y="220" class="eyebrow">HOT LOOP</text>
  <text x="904" y="248" class="label">MeasurementParser</text>
  <text x="904" y="274" class="small">byte delimiter scan,</text>
  <text x="904" y="295" class="small">integer-tenth temperature,</text>
  <text x="904" y="316" class="small">CRC32C station key</text>

  <path class="line" d="M248 201 H296" />
  <path class="line" d="M512 190 C538 172 548 167 566 167" />
  <path class="line" d="M512 215 C538 284 548 345 566 345" />
  <path class="line-green" d="M808 167 C842 172 850 230 876 245" />
  <path class="line-blue" d="M808 345 C842 340 850 292 876 278" />

  <rect x="118" y="490" width="228" height="132" rx="14" class="panel-blue" />
  <text x="140" y="520" class="eyebrow">PER WORKER</text>
  <text x="140" y="548" class="label">StationTable</text>
  <text x="140" y="574" class="small">32,768 buckets, no locks,</text>
  <text x="140" y="595" class="small">min / sum / max / count</text>

  <rect x="416" y="490" width="228" height="132" rx="14" class="panel-green" />
  <text x="438" y="520" class="eyebrow">JOIN</text>
  <text x="438" y="548" class="label">MergeInto</text>
  <text x="438" y="574" class="small">combine partial tables,</text>
  <text x="438" y="595" class="small">preserve exact key identity</text>

  <rect x="714" y="490" width="228" height="132" rx="14" class="panel" />
  <text x="736" y="520" class="eyebrow">OUTPUT</text>
  <text x="736" y="548" class="label">ResultFormatter</text>
  <text x="736" y="574" class="small">decode names once, sort,</text>
  <text x="736" y="595" class="small">round one-decimal means</text>

  <rect x="1012" y="490" width="150" height="132" rx="14" class="panel-red" />
  <text x="1034" y="520" class="eyebrow">CONTRACT</text>
  <text x="1034" y="548" class="label">Exact output</text>
  <text x="1034" y="574" class="small">official tests,</text>
  <text x="1034" y="595" class="small">generated parity</text>

  <path class="line" d="M1000 332 C1000 448 232 404 232 484" />
  <path class="line" d="M346 556 H410" />
  <path class="line" d="M644 556 H708" />
  <path class="line" d="M942 556 H1006" />

  <rect x="58" y="680" width="160" height="28" rx="14" class="chip" />
  <text x="80" y="699" class="chipText">CLAIM BOUNDARY</text>
  <text x="236" y="699" class="mono">Measured local win: full 1B on macOS ARM64. Not a claim that pread beats mmap everywhere.</text>
</svg>
