<svg xmlns="http://www.w3.org/2000/svg" viewBox="0 0 960 540" role="img" aria-labelledby="title desc">
  <title id="title">ContextLedger context pipeline</title>
  <desc id="desc">A diagram showing session history becoming typed events, selected ledger packets, compaction prompts, and measured agent runs.</desc>
  <defs>
    <linearGradient id="bg" x1="0" x2="1" y1="0" y2="1">
      <stop offset="0" stop-color="#f8fafc"/>
      <stop offset="1" stop-color="#eef6f4"/>
    </linearGradient>
    <filter id="shadow" x="-10%" y="-20%" width="120%" height="150%">
      <feDropShadow dx="0" dy="8" stdDeviation="12" flood-color="#0f172a" flood-opacity="0.13"/>
    </filter>
    <marker id="arrow" markerWidth="10" markerHeight="10" refX="7" refY="3" orient="auto" markerUnits="strokeWidth">
      <path d="M0,0 L0,6 L8,3 z" fill="#475569"/>
    </marker>
  </defs>

  <rect width="960" height="540" rx="28" fill="url(#bg)"/>

  <g opacity="0.9">
    <path d="M72 86H888" stroke="#cbd5e1" stroke-width="2"/>
    <path d="M72 454H888" stroke="#cbd5e1" stroke-width="2"/>
  </g>

  <g font-family="Inter, ui-sans-serif, system-ui, -apple-system, BlinkMacSystemFont, Segoe UI, sans-serif">
    <text x="72" y="66" fill="#0f172a" font-size="28" font-weight="800">ContextLedger</text>
    <text x="72" y="103" fill="#475569" font-size="17">Typed context accounting for long coding-agent sessions</text>
  </g>

  <g filter="url(#shadow)" font-family="Inter, ui-sans-serif, system-ui, -apple-system, BlinkMacSystemFont, Segoe UI, sans-serif">
    <g transform="translate(70 154)">
      <rect width="176" height="150" rx="14" fill="#ffffff" stroke="#cbd5e1"/>
      <circle cx="34" cy="34" r="13" fill="#0ea5a3"/>
      <text x="56" y="39" fill="#0f172a" font-size="16" font-weight="800">Session history</text>
      <text x="22" y="75" fill="#475569" font-size="14">User turns</text>
      <text x="22" y="99" fill="#475569" font-size="14">Tool results</text>
      <text x="22" y="123" fill="#475569" font-size="14">Compaction text</text>
    </g>

    <g transform="translate(284 154)">
      <rect width="176" height="150" rx="14" fill="#ffffff" stroke="#cbd5e1"/>
      <circle cx="34" cy="34" r="13" fill="#2563eb"/>
      <text x="56" y="39" fill="#0f172a" font-size="16" font-weight="800">Typed events</text>
      <text x="22" y="75" fill="#475569" font-size="14">Provenance</text>
      <text x="22" y="99" fill="#475569" font-size="14">Token cost</text>
      <text x="22" y="123" fill="#475569" font-size="14">Dependencies</text>
    </g>

    <g transform="translate(498 154)">
      <rect width="176" height="150" rx="14" fill="#ffffff" stroke="#cbd5e1"/>
      <circle cx="34" cy="34" r="13" fill="#f59e0b"/>
      <text x="56" y="39" fill="#0f172a" font-size="16" font-weight="800">Policy frontier</text>
      <text x="22" y="75" fill="#475569" font-size="14">Keep anchors</text>
      <text x="22" y="99" fill="#475569" font-size="14">Demote noise</text>
      <text x="22" y="123" fill="#475569" font-size="14">Respect budgets</text>
    </g>

    <g transform="translate(712 154)">
      <rect width="176" height="150" rx="14" fill="#ffffff" stroke="#cbd5e1"/>
      <circle cx="34" cy="34" r="13" fill="#dc2626"/>
      <text x="56" y="39" fill="#0f172a" font-size="16" font-weight="800">Compaction</text>
      <text x="22" y="75" fill="#475569" font-size="14">Augment mode</text>
      <text x="22" y="99" fill="#475569" font-size="14">Replace mode</text>
      <text x="22" y="123" fill="#475569" font-size="14">Measured output</text>
    </g>
  </g>

  <g fill="none" stroke="#475569" stroke-width="3" marker-end="url(#arrow)">
    <path d="M250 229H276"/>
    <path d="M464 229H490"/>
    <path d="M678 229H704"/>
  </g>

  <g font-family="Inter, ui-sans-serif, system-ui, -apple-system, BlinkMacSystemFont, Segoe UI, sans-serif">
    <g transform="translate(100 362)">
      <rect width="216" height="64" rx="12" fill="#ecfeff" stroke="#99f6e4"/>
      <text x="18" y="27" fill="#0f766e" font-size="13" font-weight="800">Goal</text>
      <text x="18" y="48" fill="#334155" font-size="14">Recall exact facts after compaction</text>
    </g>
    <g transform="translate(372 362)">
      <rect width="216" height="64" rx="12" fill="#eff6ff" stroke="#bfdbfe"/>
      <text x="18" y="27" fill="#1d4ed8" font-size="13" font-weight="800">Live smoke</text>
      <text x="18" y="48" fill="#334155" font-size="14">openai/gpt-5.5 noisy fixture</text>
    </g>
    <g transform="translate(644 362)">
      <rect width="216" height="64" rx="12" fill="#fff7ed" stroke="#fed7aa"/>
      <text x="18" y="27" fill="#c2410c" font-size="13" font-weight="800">Boundary</text>
      <text x="18" y="48" fill="#334155" font-size="14">Not solve-rate proof yet</text>
    </g>
  </g>
</svg>
